<svg width="30" height="30"  viewBox="0 0 30 30" fill="none" xmlns="http://www.w3.org/2000/svg">
<path id="iconErrorBold" stroke='blue' fill="#000" d="M9.85914 0.107111C9.85905 0.107041 9.85897 0.106971 9.85888 0.106901C9.80716 0.0639119 9.73899 0.0461612 9.67287 0.0584629C3.49519 1.2078 -0.00251949 7.08415 -0.770072 12.8946C-1.37825 15.968 -0.977145 19.1557 0.373612 21.9827C0.37791 21.9917 0.382797 22.0004 0.388242 22.0088C2.09937 24.6328 4.42052 26.8034 7.15318 28.3349C9.67982 29.9129 12.6156 30.7113 15.5935 30.6301C18.5732 30.5489 21.4627 29.5907 23.9006 27.8754L23.9006 27.8755L23.9045 27.8726C26.2389 26.1539 28.1111 23.8835 29.3535 21.2644C30.5958 18.6458 31.1698 15.7602 31.0245 12.8656C30.906 9.52221 29.5143 6.35051 27.1342 3.99944L27.1344 3.99927L27.1268 3.99239C24.7507 1.84924 21.918 0.274981 18.8434 -0.611132L9.85914 0.107111ZM9.85914 0.107111C10.1197 0.137985 10.2978 0.344778 10.3555 0.549976C10.3915 0.677982 10.3898 0.828259 10.3206 0.962557C10.2478 1.10402 10.1134 1.20148 9.93869 1.23424L9.93841 1.23429C3.37892 2.45562 0.339132 9.23783 0.185502 15.4109L0.185154 15.4249L0.184723 15.4249C0.057317 16.8909 0.236285 18.3674 0.710147 19.7606C1.18388 21.1533 1.94198 22.4323 2.93641 23.5164C4.84207 25.5481 7.11606 27.1996 9.63762 28.3832C12.1855 29.4565 14.993 29.7562 17.7101 29.2447C20.4286 28.733 22.9361 27.432 24.9199 25.504L24.9202 25.5037C26.8596 23.6262 28.3038 21.2977 29.1239 18.7261C29.9437 16.1555 30.1144 13.422 29.6208 10.7694M9.85914 0.107111L29.6208 10.7694M29.6208 10.7694C28.4226 5.26784 23.6443 2.14576 18.5288 0.510502L18.5283 0.51032C18.1702 0.394805 18.0743 0.050994 18.1437 -0.208133C18.1786 -0.338037 18.2572 -0.464975 18.3814 -0.547649C18.5109 -0.633824 18.6733 -0.66039 18.8431 -0.611194L29.6208 10.7694ZM7.95689 10.8485C7.9769 11.007 8.06822 11.1588 8.24797 11.2494C9.62512 11.9668 10.8204 12.9853 11.7464 14.2269L8.32108 17.5611C8.32085 17.5613 8.32062 17.5615 8.32038 17.5617C8.19716 17.68 8.14166 17.8267 8.14789 17.973C8.13478 18.0223 8.12798 18.0734 8.12798 18.1252C8.12798 18.2702 8.18124 18.4099 8.27726 18.5181L10.5484 21.322C10.5976 21.3864 10.6598 21.4399 10.7312 21.4788C10.8038 21.5184 10.8841 21.5419 10.9667 21.5478C11.0492 21.5537 11.1321 21.5417 11.2097 21.5128C11.2872 21.4838 11.3576 21.4386 11.4161 21.38C11.4709 21.3253 11.514 21.2602 11.543 21.1886C12.7114 20.1405 13.9634 19.1897 15.2864 18.3456C16.3114 19.3067 17.2217 20.3835 17.9991 21.5548C18.0067 21.5807 18.0162 21.6061 18.0275 21.6307C18.0597 21.7004 18.1061 21.7627 18.1639 21.8134C18.2713 21.9159 18.4142 21.9731 18.5628 21.9731C18.7117 21.9731 18.8548 21.9156 18.9623 21.8127L21.5728 19.5109C21.5769 19.5073 21.5809 19.5035 21.5847 19.4996C21.6731 19.4094 21.729 19.2934 21.7451 19.1695C21.7779 19.1225 21.8037 19.0705 21.8215 19.0151L21.606 18.9461L21.8215 19.0151C21.865 18.879 21.8567 18.7314 21.7977 18.6011C21.7905 18.5851 21.7815 18.5701 21.7708 18.5562L21.6876 18.4481L21.6846 18.4442C20.7201 17.1914 19.6941 15.8589 18.6211 14.6614C19.7379 13.5012 20.9142 12.3997 22.1453 11.3612C22.1507 11.3566 22.156 11.3518 22.161 11.3467C22.2244 11.282 22.2711 11.2039 22.2983 11.1193C22.3272 11.082 22.3514 11.0412 22.3702 10.9978L22.1626 10.9079L22.3702 10.9977C22.4008 10.9272 22.4166 10.851 22.4166 10.7738C22.4166 10.6967 22.4008 10.6205 22.3702 10.5499C22.3396 10.4792 22.2948 10.4155 22.2387 10.3629L22.2388 10.3627L22.232 10.3568L19.6073 8.08306C19.4977 7.98014 19.3529 7.92275 19.2023 7.92275C19.0496 7.92275 18.9029 7.9818 18.7927 8.08749L18.7926 8.08741L18.7877 8.0924C18.7778 8.10252 18.7683 8.11298 18.7592 8.12374C17.4904 9.09771 16.1453 9.96785 14.7371 10.7258C13.4331 9.66702 12.0569 8.70015 10.6185 7.83223C10.6185 7.83219 10.6184 7.83216 10.6183 7.83212L10.5014 8.02585C10.4691 8.00633 10.4343 7.9923 10.3982 7.98396M7.95689 10.8485L10.2555 7.72742C10.1084 7.72742 9.96708 7.78352 9.8601 7.88397M7.95689 10.8485C7.87561 10.7743 7.81652 10.6778 7.78792 10.5698C7.74898 10.4226 7.76967 10.2661 7.84546 10.1342L7.85087 10.1248L7.8511 10.1249C8.39554 9.27445 9.074 8.51771 9.8601 7.88397M7.95689 10.8485L8.04166 10.2469C8.57466 9.41433 9.23929 8.67379 10.0096 8.05414M10.3982 7.98396L10.4901 7.77719C10.4835 7.77425 10.4768 7.77144 10.4701 7.76876C10.4631 7.76688 10.4561 7.76512 10.4491 7.7635L10.3982 7.98396ZM10.3982 7.98396C10.3537 7.96418 10.3051 7.95369 10.2555 7.95369C10.1635 7.95369 10.0752 7.98975 10.0096 8.05414M10.0096 8.05414L9.86772 7.87784C9.86518 7.87988 9.86264 7.88193 9.8601 7.88397M10.0096 8.05414L9.85116 7.89255C9.85411 7.88966 9.85709 7.8868 9.8601 7.88397M9.06641 10.3837C10.6414 11.265 11.9909 12.5017 13.0065 13.9968C13.1078 14.1393 13.1302 14.3007 13.0832 14.448C13.0432 14.5735 12.9583 14.6734 12.8607 14.7422C12.8489 14.7555 12.8365 14.7684 12.8235 14.7809C12.8233 14.7811 12.8231 14.7813 12.8228 14.7815L9.41912 18.0943L11.0303 20.0959C12.272 19.0042 13.601 18.0156 15.0042 17.1402C15.1495 17.0461 15.3081 17.03 15.4501 17.0747C15.5591 17.0891 15.6646 17.1366 15.7555 17.2193C15.7558 17.2196 15.7561 17.2198 15.7564 17.2201L15.6039 17.3872L9.06641 10.3837ZM9.06641 10.3837C9.12129 10.3076 9.17716 10.2327 9.23309 10.1599L9.23321 10.16L9.23788 10.1535L9.30072 10.0655L9.41871 9.93443C9.42468 9.9278 9.43025 9.92082 9.4354 9.91354C9.49525 9.82876 9.56216 9.74928 9.63546 9.67592L9.63575 9.67621L9.64478 9.66602C9.85356 9.43034 10.0777 9.20894 10.3156 9.00323C11.6798 9.83762 12.9807 10.7717 14.2076 11.7978L14.2076 11.7978L14.2114 11.8009C14.2582 11.8384 14.3083 11.868 14.3606 11.8898C14.5137 11.9956 14.7312 12.0426 14.9408 11.9204C16.4266 11.1466 17.8453 10.2507 19.1823 9.2422L21.0111 10.8181C19.7787 11.8653 18.6038 12.9786 17.4918 14.1532L17.4893 14.1558C17.3584 14.2986 17.3142 14.4693 17.3378 14.6289C17.3025 14.7933 17.3359 14.9775 17.4715 15.1324C17.5055 15.1713 17.5508 15.1964 17.5993 15.2057C18.6397 16.3785 19.6255 17.5958 20.5665 18.8577L18.6886 20.5224L9.06641 10.3837ZM14.4224 -0.226138L14.5822 -0.0663702L14.4224 -0.226136C14.3141 -0.117836 14.2532 0.0290773 14.2532 0.182335C14.2532 0.335585 14.3141 0.482511 14.4224 0.590816L14.5824 0.43082L14.4224 0.590818C14.5307 0.699145 14.6776 0.760008 14.8309 0.760008C14.9841 0.760008 15.131 0.699145 15.2393 0.590818C15.3476 0.482511 15.4085 0.335585 15.4085 0.182335C15.4085 0.0290773 15.3476 -0.117836 15.2393 -0.226136C15.131 -0.334453 14.9841 -0.395339 14.8309 -0.395339C14.6776 -0.395339 14.5307 -0.334453 14.4224 -0.226138Z" fill="black" stroke="black" stroke-width="0.452541" stroke-linejoin="round"/>
</svg>
